<svg version="1.1" xmlns="http://www.w3.org/2000/svg" xmlns:xlink="http://www.w3.org/1999/xlink" width="659.58096" height="274.33268" viewBox="0,0,659.58096,274.33268"><g transform="translate(115.67345,-50.65359)"><g data-paper-data="{&quot;isPaintingLayer&quot;:true}" fill-rule="nonzero" stroke="none" stroke-width="1" stroke-linecap="butt" stroke-linejoin="miter" stroke-miterlimit="10" stroke-dasharray="" stroke-dashoffset="0" style="mix-blend-mode: normal"><path d="M238.64655,59.06373c-0.03,0.85 -0.06,1.7 -0.1,2.57c-0.31,8.63 -0.39,17.26 -0.41,25.89c-0.01,1.71 -0.02,3.42 -0.02,5.13c-0.02,3.65 -0.04,7.3 -0.05,10.95c-0.02,5.85 -0.05,11.7 -0.08,17.55c-0.05,11.44 -0.1,22.88 -0.15,34.33c-0.07,17.36 -0.15,34.73 -0.23,52.09c0,0.99 -0.01,1.98 -0.01,3c-0.17,35.98 -0.59,71.95 -1.27,107.93c-6.6,0 -13.2,0 -20,0c-0.66,-4.29 -1.32,-8.58 -2,-13c-0.58,1.69 -1.15,3.38 -1.75,5.12c-2.12,5.83 -3.95,10.35 -9.25,13.88c-4.79,0.77 -8.73,0.9 -12.75,-1.94c-1.11,-1.51 -1.11,-1.51 -2.25,-3.06c-0.47,-0.61 -0.94,-1.22 -1.42,-1.84c-18.64,-25.7 -22.29,-64.48 -25.58,-95.16c-0.14,-1.23 -0.14,-1.23 -0.29,-2.49c-1.02,-10.05 -0.93,-20.16 -0.95,-30.25c-0.01,-3.22 -0.04,-6.45 -0.07,-9.67c-0.11,-21.54 0.56,-51.95 16.36,-68.78c4.76,-4.32 8.17,-6.23 14.84,-6.07c5.01,0.62 7.95,2.84 11.03,6.61c2.68,3.76 5.05,7.51 7.08,11.65c0.07,-12.07 -0.11,-24.13 -0.43,-36.2c-0.31843,-12.22082 -0.54674,-24.43163 -0.59986,-36.65014c3.33291,0.52734 6.65451,0.55491 10.0564,0.9737c5.59773,0.68911 11.27878,0.42578 16.91733,0.29857c1.40937,-0.03179 2.83056,-0.63994 4.21227,-0.99866c-1.03556,2.46333 -0.75863,5.35399 -0.83614,8.13651zM191.32655,177.50373c-9.97,17.71 -6.94,44.12 -2,63c1.97,5.76 4.02,11.31 8,16c2.4,1.08 3.47,1.18 5.96,0.34c4.92,-3.23 6.31,-10.7 7.8,-16.11c3.68,-19.08 3.84,-44.77 -5.76,-62.23c-2.44,-3.12 -3.69,-4.71 -7.56,-5.56c-3.42,0.79 -4.33,1.71 -6.44,4.56z" fill="#000000"/><path d="M-45.67345,71.50373c0.37,1.19 0.37,1.19 0.74,2.41c2.31,7.51 4.62,15.03 6.93,22.55c1.19,3.86 2.37,7.73 3.56,11.59c1.15,3.74 2.29,7.47 3.44,11.2c0.44,1.42 0.87,2.84 1.31,4.26c2.26,7.36 4.54,14.7 7.02,21.99c0.23,-0.65 0.46,-1.3 0.7,-1.98c2.37,-6.36 4.54,-11.78 10.61,-15.4c6.48,-1.5 11.04,-1.14 16.69,2.38c38.59,24.74 45.25,117.83 55.2,159.09c0.69,2.85 1.38,5.7 2.06,8.56c0.48,1.99 0.96,3.98 1.44,5.97c0.29,1.19 0.58,2.39 0.88,3.62c0.25,1.04 0.5,2.09 0.76,3.16c0.65,2.69 0.65,2.69 1.66,5.6c0.00008,0 0.00016,0.00001 0.00024,0.00001c-0.09595,0.80701 -0.11833,1.65189 -0.21968,2.38005c-0.02,0.14369 -0.03751,0.3069 -0.05247,0.48717c-0.27432,0.00845 -0.55011,0.01616 -0.82808,0.02278c-0.19212,0.0122 -0.3833,0.02347 -0.57469,0.03437c-1.17698,-0.27569 -2.35311,-0.47204 -3.49581,-0.58336c0.0567,-0.1134 0.11353,-0.22707 0.1705,-0.34101c-8.42,-0.5 -8.42,-0.5 -17,-1c-3.37,-7.87 -3.37,-7.87 -4.4,-11.7c-0.24,-0.86 -0.47,-1.73 -0.72,-2.62c-0.24,-0.92 -0.49,-1.85 -0.74,-2.8c-0.27,-0.99 -0.54,-1.98 -0.82,-3c-0.58,-2.13 -1.15,-4.27 -1.73,-6.41c-1.54,-5.72 -3.11,-11.44 -4.67,-17.15c-0.32,-1.18 -0.64,-2.36 -0.97,-3.57c-3.15,-11.52 -6.35,-23.02 -9.61,-34.5c-0.6,-2.11 -1.19,-4.21 -1.78,-6.31c-4.83,-21.83 -4.83,-21.83 -17.56,-38.94c-1.32,0 -2.64,0 -4,0c-6.69,13.39 2.68,33.01 6.84,46.29c0.57,1.83 1.14,3.66 1.71,5.49c1.48,4.79 2.98,9.58 4.48,14.36c1.51,4.85 3.02,9.69 4.52,14.54c1.96,6.31 3.93,12.61 5.89,18.91c0.97,3.1 1.93,6.19 2.9,9.29c0.64,2.04 1.28,4.09 1.92,6.13c0.37,1.17 0.73,2.35 1.11,3.56c0.32,1.01 0.64,2.02 0.96,3.06c0.67,2.37 0.67,2.37 0.67,4.37c-7.26,0 -14.52,0 -22,0c-3.05,-8.52 -6.09,-17.04 -9.13,-25.57c-0.6,-1.67 -1.2,-3.34 -1.79,-5.02c-8.48,-23.76 -16.92,-47.53 -25.08,-71.41c-1.89,-5.54 -3.79,-11.08 -5.69,-16.62c-0.25,-0.73 -0.49,-1.45 -0.75,-2.2c-5.8,-16.95 -11.71,-33.87 -17.63,-50.78c-2.35,-6.73 -4.7,-13.47 -7.04,-20.2c-0.68,-1.95 -1.36,-3.9 -2.04,-5.84c-0.97,-2.8 -1.95,-5.59 -2.92,-8.39c-0.9,-2.57 -1.79,-5.14 -2.69,-7.71c-0.42,-1.2 -0.42,-1.2 -0.84,-2.42c-1.3,-3.71 -2.6,-7.41 -3.94,-11.1c-0.35,-0.98 -0.35,-0.98 -0.71,-1.98c-0.63,-1.73 -1.26,-3.46 -1.9,-5.19c-0.85,-2.57 -0.85,-2.57 -0.85,-4.57c3.21,-0.82 6.42,-1.63 9.62,-2.44c0.91,-0.23 1.81,-0.46 2.74,-0.69c5.91,-1.49 11.52,-2.87 17.64,-2.87z" fill="#000000"/><path d="M295.88905,107.62873c10.97,5.98 16.35,15.88 19.98,27.59c15.33,53.79 6.51,126.29 -20.6,175.26c-3.24,5.06 -7.44,11.28 -12.94,14.03c-5.18,0.67 -10.39,1.12 -14.75,-2.13c-24.28,-24.98 -21.94,-77.65 -21.5,-109.73c0.62,-33.82 4.09,-73.48 27.25,-100.14c2.03,-1.55 2.03,-1.55 4.06,-2.76c0.67,-0.4 1.34,-0.81 2.04,-1.23c5.44,-2.9 10.75,-2.69 16.46,-0.89zM279.32905,179.50873c-8.11,11.86 -8.2,27.84 -8.25,41.62c-0.02,1.29 -0.04,2.58 -0.07,3.91c-0.04,10.17 0.05,22.54 7.32,30.47c1.85,1.4 1.85,1.4 4,1c7.92,-5.29 9.94,-16.77 11.81,-25.5c1.4,-8.03 1.54,-16.12 1.63,-24.26c0.03,-1.81 0.03,-1.81 0.06,-3.65c-0.02,-8.19 -0.83,-16.16 -4.5,-23.59c-5.13,-4.82 -6.9,-4.86 -12,0z" fill="#000000"/><path d="M82.63905,119.31623c0.89,0.72 1.77,1.44 2.69,2.19c0.8,0.6 1.6,1.21 2.43,1.84c25.23,21.2 31.08,66.55 34.57,97.16c0.1,0.79 0.19,1.58 0.3,2.4c0.8,6.99 0.7,13.42 0.7,20.6c-19.8,0.99 -19.8,0.99 -40,2c4.18,11.2 4.18,11.2 11,21c2.6,0.79 2.6,0.79 5,1c2.3,-4.3 3.78,-8.32 5,-13c0.66,0 1.32,0 2,0c2.25,2.47 4.26,5.1 6.33,7.73c1.81,2.27 3.7,4.4 5.71,6.51c8.67,9.22 8.67,9.22 8.83,15.07c-0.22,1.91 -0.52,3.8 -0.87,5.69c-0.27,1.89 -0.27,1.89 -0.54,3.82c-1.47,9.77 -3.46,20.71 -10.71,27.93c-3.43,2.52 -6.43,3.02 -10.63,2.69c-7.55,-1.58 -13.86,-9.24 -18.13,-15.29c-2.1,-3.33 -4.09,-6.71 -5.99,-10.15c-0.32,-0.58 -0.64,-1.16 -0.97,-1.75c-23.4,-43 -43.44,-108.22 -30.03,-157.25c2.73,-7.94 6.75,-15.86 13.62,-20.94c6.55,-2.93 13.38,-2.7 19.69,0.75zM77.32905,172.50623c-5.73,6.89 -5.53,16.4 -5,25c0.31,2.33 0.64,4.67 1,7c2.73,-0.14 5.46,-0.29 8.19,-0.44c0.76,-0.04 1.53,-0.08 2.33,-0.12c3.91,-0.22 7.65,-0.53 11.48,-1.44c-1.46,-9.66 -4.13,-21.72 -11,-29c-3.64,-0.98 -3.64,-0.98 -7,-1z" fill="#000000"/><path d="M482.32655,138.50373c2.09,0.31 4.17,0.63 6.26,0.95c1.16,0.17 2.32,0.35 3.52,0.53c3.4,0.55 6.7,1.26 10.03,2.14c1,0.27 2,0.53 3.02,0.79c0.72,0.2 1.43,0.39 2.17,0.59c-0.26,1.99 -0.52,3.97 -0.78,5.96c-0.27,2.19 -0.27,2.19 -0.22,5.04c0.5,-0.72 0.99,-1.44 1.5,-2.19c4.38,-4.93 10.9,-9.33 17.59,-10.03c5.04,-0.2 8.66,0.26 12.91,3.22c6.81,8.84 6,19.81 4.7,30.46c-2.65,16.19 -9.43,31.25 -15.75,46.27c-1.35,3.22 -2.69,6.44 -4.03,9.66c-3.75,9.02 -7.53,18.03 -11.32,27.03c-2.91,6.92 -5.8,13.85 -8.69,20.79c-1.23,2.97 -2.47,5.94 -3.71,8.91c-0.8,1.91 -1.59,3.82 -2.39,5.74c-1.1,2.65 -2.2,5.3 -3.31,7.95c-0.49,1.19 -0.49,1.19 -0.99,2.39c-1.31,3.15 -2.61,5.96 -4.51,8.8c-0.55218,0.15421 -1.10683,0.30842 -1.66643,0.46387c-2.01607,0.00958 -4.0361,0.19604 -6.01999,0.51798c-2.73871,0.44443 -6.03342,0.66673 -8.55664,1.91746c-0.44499,0.09683 -0.8783,0.20605 -1.29227,0.32652c-0.24849,-0.01849 -0.4995,-0.0279 -0.75271,-0.0279c-0.04834,0 -0.0966,0.00034 -0.14478,0.00103c-0.04818,-0.00068 -0.09644,-0.00103 -0.14478,-0.00103c-0.34179,0 -0.67958,0.01715 -1.01256,0.05063c-0.45436,0.03386 -0.92789,0.11217 -1.42642,0.24795c-0.01345,0.00366 -0.02687,0.00738 -0.04025,0.01115c-0.29508,0.07527 -0.58492,0.16366 -0.86885,0.26452c3.11821,-9.55233 6.42367,-18.99694 9.94567,-28.40217c0.82,-2.2 1.64,-4.39 2.46,-6.59c2.89,-7.76 5.79,-15.51 8.7,-23.26c1.44,-3.85 2.88,-7.71 4.32,-11.56c1.04,-2.77 2.08,-5.54 3.12,-8.3c8.56,-18.97 8.56,-18.97 9.44,-38.66c-0.35,-0.66 -0.7,-1.32 -1.06,-2c-2.29,-0.42 -2.29,-0.42 -5,0c-7.84,6.03 -11.77,16.1 -14.88,25.19c-0.36,1.03 -0.72,2.06 -1.09,3.12c-1.09,3.13 -2.18,6.27 -3.25,9.41c-0.86,2.52 -1.72,5.03 -2.59,7.55c-7.22,21.06 -14.38,42.14 -21.36,63.28c-0.37,1.1 -0.73,2.21 -1.11,3.34c-0.31,0.95 -0.62,1.9 -0.94,2.87c-0.78,2.24 -0.78,2.24 -1.78,4.24c-2.55,0.31 -5,0.51 -7.56,0.62c-0.71,0.04 -1.42,0.08 -2.16,0.12c-0.7801,0.04432 -1.56021,0.08472 -2.34031,0.12293c-0.34963,-0.08126 -0.70909,-0.15375 -1.07832,-0.21724c-2.32152,-0.3992 -5.27535,-0.83143 -7.53923,-0.5791c-0.39478,0.044 -0.87652,0.48999 -1.17063,0.223c-0.46796,-0.42482 -0.86233,-0.95676 -1.23061,-1.52241c0.92331,-0.7254 1.5403,-1.64975 2.3591,-3.21717c1.2,-3.45 2.22,-6.92 3.19,-10.45c0.39,-1.35 0.79,-2.71 1.19,-4.06c0.86,-2.92 1.7,-5.85 2.53,-8.79c1.32,-4.68 2.68,-9.34 4.04,-14.01c1.69,-5.78 3.37,-11.56 5.03,-17.34c3.24,-11.23 6.56,-22.43 9.91,-33.63c0.26,-0.85 0.51,-1.7 0.77,-2.58c1.03,-3.4 2.05,-6.81 3.07,-10.22c2.39,-7.96 4.77,-15.93 7.15,-23.91c4.93,-16.52 9.88,-33.04 14.84,-49.56z" fill="#000000"/><path d="M397.32655,125.50373c9.09,0.17 18.05,1.5 27,3c-1.56,10.37 -3.78,20.57 -6.03,30.8c-0.39,1.81 -0.78,3.62 -1.18,5.42c-1.03,4.74 -2.06,9.47 -3.1,14.21c-1.65,7.56 -3.3,15.12 -4.94,22.68c-0.57,2.62 -1.15,5.23 -1.72,7.84c-1.62,7.42 -3.22,14.84 -4.74,22.28c-0.23,1.13 -0.46,2.26 -0.7,3.43c-1.41,7.99 -2.6,15.61 0.41,23.34c4.83,-1.93 6.57,-4.95 8.62,-9.48c1.68,-4.28 2.96,-8.61 4.2,-13.03c0.27,-0.93 0.53,-1.85 0.8,-2.79c2.83,-10.14 5.3,-20.35 7.74,-30.59c0.49,-2 0.97,-4.01 1.45,-6.01c1.25,-5.2 2.5,-10.41 3.74,-15.61c2.01,-8.39 4.02,-16.78 6.04,-25.17c0.7,-2.92 1.4,-5.84 2.1,-8.76c0.42,-1.77 0.85,-3.54 1.27,-5.31c0.19,-0.81 0.39,-1.62 0.59,-2.46c1.34,-5.56 1.34,-5.56 2.45,-7.79c3.56,0.48 7.13,0.96 10.69,1.44c1,0.13 2.01,0.27 3.05,0.41c0.98,0.13 1.95,0.26 2.96,0.4c0.89,0.12 1.79,0.24 2.71,0.36c2.55,0.38 5.06,0.88 7.59,1.39c-1.22,6.44 -2.65,12.77 -4.4,19.09c-0.23,0.85 -0.46,1.69 -0.7,2.56c-0.75,2.76 -1.51,5.53 -2.28,8.29c-0.53,1.95 -1.07,3.9 -1.6,5.85c-1.12,4.05 -2.23,8.1 -3.35,12.15c-1.35,4.88 -2.68,9.77 -4.02,14.66c-24.11,88.43 -24.11,88.43 -45.65,112.4c-0.66,0 -1.32,0 -2,0c-0.19,0.56 -0.37,1.11 -0.56,1.69c-2.55,4.09 -6.08,6.6 -10.69,7.99c-4.02,0.67 -6.27,0.53 -10.06,-1.12c-8.46,-8.06 -9.77,-21.08 -10.09,-32.23c-0.01,-2.02 -0.01,-4.04 0.01,-6.06c0.01,-1.98 0,-3.96 -0.02,-5.94c-0.06,-26.15 5.49,-51.96 10.28,-77.55c0.84,-4.51 1.67,-9.02 2.51,-13.53c1.27,-6.92 2.56,-13.84 3.85,-20.76c1.13,-6.01 2.23,-12.02 3.33,-18.03c0.23,-1.28 0.46,-2.55 0.7,-3.87c0.42,-2.33 0.84,-4.66 1.26,-6.99c0.19,-1.01 0.37,-2.01 0.56,-3.04c0.23,-1.3 0.23,-1.3 0.47,-2.62c0.45,-1.94 0.45,-1.94 1.45,-2.94z" fill="#000000"/><path d="M354.32655,76.50373c8.79,0.52 17.35,1.37 26,3c-1.45,10.93 -2.93,21.85 -4.62,32.75c-0.13,0.8 -0.25,1.61 -0.38,2.43c-0.88,5.58 -0.88,5.58 -2,7.82c1.18,-0.02 2.35,-0.04 3.56,-0.06c3.89,-0.07 7.6,0.49 11.44,1.06c-0.27,1.63 -0.54,3.25 -0.81,4.88c-0.25,1.46 -0.49,2.92 -0.73,4.38c-0.68,4.06 -1.36,8.12 -2.03,12.18c-1.24,7.4 -2.47,14.79 -3.68,22.19c-0.19,1.1 -0.37,2.2 -0.55,3.34c-0.34,2.02 -0.67,4.04 -0.99,6.06c-0.22,1.33 -0.22,1.33 -0.45,2.69c-0.12,0.76 -0.25,1.52 -0.37,2.31c-0.39,1.97 -0.39,1.97 -1.39,4.97c-4.83,0.08 -9.24,-0.05 -14,-1c-0.05,0.73 -0.1,1.45 -0.15,2.2c-0.56,7.37 -1.5,14.6 -2.7,21.89c-0.36,2.27 -0.72,4.54 -1.08,6.81c-0.57,3.52 -1.13,7.04 -1.71,10.56c-0.56,3.44 -1.1,6.88 -1.65,10.32c-0.17,1.03 -0.34,2.06 -0.52,3.13c-2.46,13.02 -2.46,13.02 0.81,25.09c3.47,-0.99 3.47,-0.99 7,-2c-0.61,9.64 -2.14,19.13 -3.74,28.65c-0.3,1.82 -0.59,3.65 -0.87,5.49c-0.41,2.67 -0.86,5.34 -1.31,8.01c-0.12,0.81 -0.24,1.63 -0.36,2.47c-0.73,4.1 -1.47,6.6 -4.7,9.35c-4.87,3.28 -8.07,4.68 -14.09,3.69c-3.44,-1.18 -5.21,-3.64 -6.93,-6.66c-12.77,-26.4 -1.83,-67.45 1.62,-94.99c0.35,-2.8 0.7,-5.6 1.04,-8.4c0.84,-6.83 1.68,-13.67 2.58,-20.5c0.12,-0.95 0.25,-1.9 0.37,-2.88c0.39,-2.23 0.39,-2.23 1.39,-4.23c-3.3,-0.33 -6.6,-0.66 -10,-1c0.83,-7.62 1.67,-15.23 2.51,-22.85c0.28,-2.59 0.57,-5.19 0.85,-7.78c0.41,-3.72 0.82,-7.44 1.23,-11.17c0.13,-1.16 0.25,-2.32 0.38,-3.51c0.12,-1.08 0.24,-2.17 0.37,-3.28c0.1,-0.95 0.2,-1.9 0.31,-2.88c0.31,-2.24 0.75,-4.35 1.35,-6.53c1.07,-0.23 2.14,-0.45 3.25,-0.69c4.29,-1.5 5.24,-2.63 7.75,-6.31c5.46,-12.62 6.19,-27.52 8,-41z" fill="#000000"/><path d="M-89.67345,110.50373c1.86,4.8 3.71,9.61 5.55,14.42c0.63,1.63 1.26,3.27 1.9,4.9c0.9,2.35 1.8,4.7 2.71,7.05c0.28,0.73 0.56,1.46 0.86,2.22c1.98,5.18 1.98,5.18 1.98,7.41c4.95,-0.99 9.9,-1.98 15,-3c2.63,7.13 5.26,14.27 7.87,21.41c1.22,3.31 2.44,6.63 3.66,9.94c1.41,3.81 2.8,7.61 4.19,11.42c0.45,1.2 0.89,2.39 1.34,3.62c0.6,1.65 0.6,1.65 1.22,3.33c0.36,0.98 0.71,1.95 1.08,2.95c0.64,2.33 0.64,2.33 -0.36,4.33c-2.72,0.41 -2.72,0.41 -6.06,0.62c-1.66,0.12 -1.66,0.12 -3.35,0.23c-1.28,0.08 -1.28,0.08 -2.59,0.15c0.65,1.65 1.3,3.31 1.95,4.96c0.43,1.1 0.86,2.19 1.3,3.32c0.97,2.47 1.94,4.94 2.91,7.4c2.5,6.33 4.98,12.66 7.4,19.03c1.13,2.97 2.27,5.95 3.42,8.92c0.55,1.45 1.1,2.89 1.64,4.33c4.09,10.99 4.09,10.99 11.38,20.04c0.99,0.33 1.98,0.66 3,1c2.68,-1.37 2.68,-1.37 5,-3c2.34,6.17 4.65,12.34 6.95,18.52c0.78,2.11 1.57,4.21 2.36,6.3c1.15,3.02 2.27,6.04 3.39,9.07c0.54,1.4 0.54,1.4 1.09,2.84c2.37,6.53 2.37,6.53 1.54,10.28c-2.18,3.26 -3,3.92 -6.95,4.8c-6.58,0.64 -11.37,-1.76 -16.38,-5.87c-1.75,-1.54 -1.75,-1.54 -3,-2.94c0,-0.66 0,-1.32 0,-2c-0.66,0 -1.32,0 -2,0c-19.36,-21.97 -29.61,-52.41 -40.89,-79.01c-3.27,-7.71 -6.59,-15.39 -10.11,-22.99c-2.64,0 -5.28,0 -8,0c-4.57,-8.99 -8.95,-18.03 -13.08,-27.23c-0.87,-1.93 -1.76,-3.86 -2.64,-5.79c-0.56,-1.25 -1.12,-2.49 -1.68,-3.74c-0.75,-1.66 -0.75,-1.66 -1.52,-3.35c-1.08,-2.89 -1.08,-2.89 -1.08,-6.89c0.65,-0.48 1.3,-0.96 1.96,-1.45c2.24,-1.37 2.24,-1.37 2.61,-3.76c-0.02,-8.31 -2.47,-15.17 -5.57,-22.79c-0.56,-1.41 -1.11,-2.82 -1.67,-4.23c-1.42,-3.6 -2.87,-7.19 -4.33,-10.77c3.39,-1.01 6.79,-2.01 10.19,-3c0.96,-0.29 1.92,-0.57 2.91,-0.87c0.93,-0.27 1.86,-0.54 2.82,-0.82c0.85,-0.25 1.71,-0.5 2.58,-0.76c2.58,-0.57 4.87,-0.65 7.5,-0.55z" fill="#000000"/><path d="" fill="#000103"/></g></g></svg>